<svg width="97" height="16" viewBox="0 0 97 16" fill="none" xmlns="http://www.w3.org/2000/svg">
<path d="M6.36719 2.00781C5.82031 2.00781 5.33073 2.10677 4.89844 2.30469C4.47135 2.5026 4.10938 2.78906 3.8125 3.16406C3.51562 3.53385 3.28906 3.98438 3.13281 4.51562C2.97656 5.04167 2.89844 5.63542 2.89844 6.29688C2.89844 7.18229 3.02344 7.94531 3.27344 8.58594C3.52344 9.22135 3.90365 9.71094 4.41406 10.0547C4.92448 10.3932 5.57031 10.5625 6.35156 10.5625C6.83594 10.5625 7.30729 10.5156 7.76562 10.4219C8.22396 10.3281 8.69792 10.2005 9.1875 10.0391V11.6328C8.72396 11.8151 8.25521 11.9479 7.78125 12.0312C7.30729 12.1146 6.76042 12.1562 6.14062 12.1562C4.97396 12.1562 4.00521 11.9141 3.23438 11.4297C2.46875 10.9453 1.89583 10.263 1.51562 9.38281C1.14062 8.5026 0.953125 7.47135 0.953125 6.28906C0.953125 5.42448 1.07292 4.63281 1.3125 3.91406C1.55208 3.19531 1.90104 2.57552 2.35938 2.05469C2.81771 1.52865 3.38281 1.125 4.05469 0.84375C4.73177 0.557292 5.50521 0.414062 6.375 0.414062C6.94792 0.414062 7.51042 0.479167 8.0625 0.609375C8.61979 0.734375 9.13542 0.914062 9.60938 1.14844L8.95312 2.69531C8.55729 2.50781 8.14323 2.34635 7.71094 2.21094C7.27865 2.07552 6.83073 2.00781 6.36719 2.00781ZM18.5544 8.89062C18.5544 9.56771 18.3877 10.151 18.0544 10.6406C17.7262 11.1302 17.2523 11.5052 16.6325 11.7656C16.0179 12.026 15.2835 12.1562 14.4294 12.1562C14.0127 12.1562 13.6143 12.1328 13.2341 12.0859C12.8539 12.0391 12.4945 11.9714 12.1559 11.8828C11.8226 11.7891 11.5179 11.6771 11.2419 11.5469V9.78125C11.7054 9.98438 12.2236 10.1693 12.7966 10.3359C13.3695 10.4974 13.9528 10.5781 14.5466 10.5781C15.0309 10.5781 15.432 10.5156 15.7497 10.3906C16.0726 10.2604 16.3122 10.0781 16.4684 9.84375C16.6247 9.60417 16.7028 9.32552 16.7028 9.00781C16.7028 8.66927 16.6117 8.38281 16.4294 8.14844C16.2471 7.91406 15.971 7.70052 15.6012 7.50781C15.2367 7.3099 14.7783 7.09896 14.2262 6.875C13.8512 6.72396 13.4919 6.55208 13.1481 6.35938C12.8096 6.16667 12.5075 5.9401 12.2419 5.67969C11.9762 5.41927 11.7653 5.11198 11.6091 4.75781C11.458 4.39844 11.3825 3.97656 11.3825 3.49219C11.3825 2.84635 11.5361 2.29427 11.8434 1.83594C12.1559 1.3776 12.5934 1.02604 13.1559 0.78125C13.7236 0.536458 14.3851 0.414062 15.1403 0.414062C15.7393 0.414062 16.3018 0.476562 16.8278 0.601562C17.3591 0.726562 17.8799 0.903646 18.3903 1.13281L17.7966 2.64062C17.3278 2.44792 16.8721 2.29427 16.4294 2.17969C15.9919 2.0651 15.544 2.00781 15.0856 2.00781C14.6898 2.00781 14.3539 2.06771 14.0778 2.1875C13.8018 2.30729 13.5908 2.47656 13.445 2.69531C13.3044 2.90885 13.2341 3.16406 13.2341 3.46094C13.2341 3.79427 13.3148 4.07552 13.4762 4.30469C13.6429 4.52865 13.8981 4.73438 14.2419 4.92188C14.5908 5.10938 15.0387 5.31771 15.5856 5.54688C16.2158 5.80729 16.7497 6.08073 17.1872 6.36719C17.6299 6.65365 17.9684 6.9974 18.2028 7.39844C18.4372 7.79427 18.5544 8.29167 18.5544 8.89062Z" fill="white"/>
<path d="M21.0775 12V0.578125H22.9525V12H21.0775ZM30.6084 3.1875C31.5824 3.1875 32.3402 3.4401 32.8819 3.94531C33.4287 4.44531 33.7022 5.25 33.7022 6.35938V12H31.8662V6.70312C31.8662 6.03125 31.7282 5.52865 31.4522 5.19531C31.1761 4.85677 30.7491 4.6875 30.1709 4.6875C29.3324 4.6875 28.7491 4.94531 28.4209 5.46094C28.098 5.97656 27.9366 6.72396 27.9366 7.70312V12H26.1006V3.35156H27.5303L27.7881 4.52344H27.8897C28.0772 4.22135 28.309 3.97396 28.585 3.78125C28.8662 3.58333 29.1787 3.4349 29.5225 3.33594C29.8715 3.23698 30.2334 3.1875 30.6084 3.1875ZM38.5691 12L35.28 3.35156H37.2253L39.0066 8.42969C39.1211 8.7526 39.2253 9.10156 39.3191 9.47656C39.4128 9.85156 39.4779 10.1667 39.5144 10.4219H39.5769C39.6133 10.1562 39.6836 9.83854 39.7878 9.46875C39.892 9.09375 39.9987 8.7474 40.1081 8.42969L41.8894 3.35156H43.8269L40.5378 12H38.5691ZM48.9047 3.1875C49.6755 3.1875 50.337 3.34635 50.8891 3.66406C51.4411 3.98177 51.8656 4.43229 52.1625 5.01562C52.4594 5.59896 52.6078 6.29688 52.6078 7.10938V8.09375H46.8344C46.8552 8.93229 47.0792 9.57812 47.5062 10.0312C47.9385 10.4844 48.5427 10.7109 49.3187 10.7109C49.8708 10.7109 50.3656 10.6589 50.8031 10.5547C51.2458 10.4453 51.7016 10.2865 52.1703 10.0781V11.5703C51.738 11.7734 51.2979 11.9219 50.85 12.0156C50.4021 12.1094 49.8656 12.1562 49.2406 12.1562C48.3917 12.1562 47.6443 11.9922 46.9984 11.6641C46.3578 11.3307 45.8552 10.8359 45.4906 10.1797C45.1312 9.52344 44.9516 8.70833 44.9516 7.73438C44.9516 6.76562 45.1156 5.94271 45.4437 5.26562C45.7719 4.58854 46.2328 4.07292 46.8266 3.71875C47.4203 3.36458 48.113 3.1875 48.9047 3.1875ZM48.9047 4.57031C48.3266 4.57031 47.8578 4.75781 47.4984 5.13281C47.1443 5.50781 46.9359 6.05729 46.8734 6.78125H50.8109C50.8057 6.34896 50.7328 5.96615 50.5922 5.63281C50.4568 5.29948 50.2484 5.03906 49.9672 4.85156C49.6911 4.66406 49.337 4.57031 48.9047 4.57031ZM59.5059 3.1875C60.4799 3.1875 61.2377 3.4401 61.7794 3.94531C62.3262 4.44531 62.5997 5.25 62.5997 6.35938V12H60.7637V6.70312C60.7637 6.03125 60.6257 5.52865 60.3497 5.19531C60.0736 4.85677 59.6466 4.6875 59.0684 4.6875C58.2299 4.6875 57.6466 4.94531 57.3184 5.46094C56.9955 5.97656 56.8341 6.72396 56.8341 7.70312V12H54.9981V3.35156H56.4278L56.6856 4.52344H56.7872C56.9747 4.22135 57.2065 3.97396 57.4825 3.78125C57.7637 3.58333 58.0762 3.4349 58.42 3.33594C58.769 3.23698 59.1309 3.1875 59.5059 3.1875ZM68.7087 10.6719C68.9483 10.6719 69.1853 10.651 69.4197 10.6094C69.6541 10.5625 69.8676 10.5078 70.0603 10.4453V11.8359C69.8572 11.9245 69.5942 12 69.2712 12.0625C68.9483 12.125 68.6124 12.1562 68.2634 12.1562C67.7739 12.1562 67.3337 12.0755 66.9431 11.9141C66.5525 11.7474 66.2426 11.4635 66.0134 11.0625C65.7843 10.6615 65.6697 10.1068 65.6697 9.39844V4.75H64.49V3.92969L65.7556 3.28125L66.3572 1.42969H67.5134V3.35156H69.99V4.75H67.5134V9.375C67.5134 9.8125 67.6228 10.138 67.8416 10.3516C68.0603 10.5651 68.3494 10.6719 68.7087 10.6719ZM79.7944 7.65625C79.7944 8.375 79.7006 9.01302 79.5131 9.57031C79.3256 10.1276 79.0522 10.599 78.6928 10.9844C78.3334 11.3646 77.9011 11.6562 77.3959 11.8594C76.8907 12.0573 76.3204 12.1562 75.685 12.1562C75.0912 12.1562 74.547 12.0573 74.0522 11.8594C73.5574 11.6562 73.1277 11.3646 72.7631 10.9844C72.4037 10.599 72.1251 10.1276 71.9272 9.57031C71.7293 9.01302 71.6303 8.375 71.6303 7.65625C71.6303 6.70312 71.7944 5.89583 72.1225 5.23438C72.4558 4.56771 72.9298 4.0599 73.5444 3.71094C74.159 3.36198 74.8907 3.1875 75.7397 3.1875C76.5366 3.1875 77.2397 3.36198 77.8491 3.71094C78.4584 4.0599 78.935 4.56771 79.2787 5.23438C79.6225 5.90104 79.7944 6.70833 79.7944 7.65625ZM73.5209 7.65625C73.5209 8.28646 73.5965 8.82552 73.7475 9.27344C73.9037 9.72135 74.1433 10.0651 74.4662 10.3047C74.7892 10.5391 75.2058 10.6562 75.7162 10.6562C76.2267 10.6562 76.6433 10.5391 76.9662 10.3047C77.2892 10.0651 77.5261 9.72135 77.6772 9.27344C77.8282 8.82552 77.9037 8.28646 77.9037 7.65625C77.9037 7.02604 77.8282 6.49219 77.6772 6.05469C77.5261 5.61198 77.2892 5.27604 76.9662 5.04688C76.6433 4.8125 76.2241 4.69531 75.7084 4.69531C74.948 4.69531 74.3933 4.95052 74.0444 5.46094C73.6954 5.97135 73.5209 6.70312 73.5209 7.65625ZM86.6066 3.1875C86.7524 3.1875 86.9112 3.19531 87.0831 3.21094C87.255 3.22656 87.4034 3.2474 87.5284 3.27344L87.3566 4.99219C87.2472 4.96094 87.1118 4.9375 86.9503 4.92188C86.7941 4.90625 86.6534 4.89844 86.5284 4.89844C86.2003 4.89844 85.8878 4.95312 85.5909 5.0625C85.2941 5.16667 85.031 5.32812 84.8019 5.54688C84.5727 5.76042 84.393 6.02865 84.2628 6.35156C84.1326 6.67448 84.0675 7.04948 84.0675 7.47656V12H82.2237V3.35156H83.6612L83.9112 4.875H83.9972C84.1691 4.56771 84.3826 4.28646 84.6378 4.03125C84.893 3.77604 85.1847 3.57292 85.5128 3.42188C85.8461 3.26562 86.2107 3.1875 86.6066 3.1875ZM88.1453 3.35156H90.1453L91.9187 8.28906C91.9969 8.51302 92.0672 8.73438 92.1297 8.95312C92.1974 9.16667 92.2547 9.3776 92.3016 9.58594C92.3536 9.79427 92.3953 10.0026 92.4266 10.2109H92.4734C92.5255 9.9401 92.5984 9.63802 92.6922 9.30469C92.7911 8.96615 92.9005 8.6276 93.0203 8.28906L94.7234 3.35156H96.7L92.9891 13.1875C92.7755 13.75 92.5125 14.2292 92.2 14.625C91.8927 15.026 91.5281 15.3281 91.1062 15.5312C90.6844 15.7396 90.2026 15.8438 89.6609 15.8438C89.4005 15.8438 89.174 15.8281 88.9812 15.7969C88.7885 15.7708 88.6245 15.7422 88.4891 15.7109V14.2422C88.5984 14.2682 88.7365 14.2917 88.9031 14.3125C89.0698 14.3333 89.2417 14.3438 89.4187 14.3438C89.7469 14.3438 90.0307 14.2786 90.2703 14.1484C90.5099 14.0182 90.713 13.8333 90.8797 13.5938C91.0464 13.3594 91.1844 13.0911 91.2937 12.7891L91.5984 11.9766L88.1453 3.35156Z" fill="#DC7237"/>
</svg>
